<svg xmlns="http://www.w3.org/2000/svg" xmlns:xlink="http://www.w3.org/1999/xlink" width="500" zoomAndPan="magnify" viewBox="0 0 375 374.999991" height="500" preserveAspectRatio="xMidYMid meet" version="1.0"><defs><clipPath id="97a7fd13c9"><rect x="0" width="375" y="0" height="375"/></clipPath></defs><g transform="matrix(1, 0, 0, 1, 0, 0)"><g clip-path="url(#97a7fd13c9)"><path fill="#4258ff" d="M 363.96875 11.015625 C 362.226562 9.277344 360.332031 7.726562 358.289062 6.359375 C 356.242188 4.992188 354.085938 3.835938 351.8125 2.894531 C 349.542969 1.949219 347.203125 1.234375 344.789062 0.746094 C 342.378906 0.257812 339.945312 0.0117188 337.484375 0 L 112.496094 0 C 110.035156 0.0117188 107.601562 0.257812 105.1875 0.746094 C 102.777344 1.234375 100.4375 1.949219 98.164062 2.894531 C 95.894531 3.835938 93.738281 4.992188 91.691406 6.359375 C 89.648438 7.726562 87.753906 9.277344 86.011719 11.015625 C 84.265625 12.75 82.703125 14.636719 81.332031 16.679688 C 79.957031 18.722656 78.800781 20.882812 77.855469 23.15625 C 76.910156 25.425781 76.195312 27.769531 75.714844 30.183594 C 75.234375 32.597656 74.996094 35.035156 74.996094 37.5 L 74.996094 200.03125 L 37.5 200.03125 C 36.273438 200.03125 35.050781 200.089844 33.828125 200.210938 C 32.609375 200.328125 31.398438 200.507812 30.195312 200.746094 C 28.996094 200.984375 27.808594 201.28125 26.632812 201.636719 C 25.460938 201.992188 24.308594 202.40625 23.175781 202.871094 C 22.042969 203.339844 20.933594 203.863281 19.855469 204.441406 C 18.773438 205.015625 17.722656 205.644531 16.703125 206.324219 C 15.683594 207.003906 14.699219 207.734375 13.75 208.507812 C 12.800781 209.285156 11.890625 210.105469 11.023438 210.972656 C 10.15625 211.835938 9.332031 212.742188 8.554688 213.6875 C 7.773438 214.632812 7.042969 215.617188 6.359375 216.632812 C 5.675781 217.652344 5.046875 218.699219 4.464844 219.78125 C 3.886719 220.859375 3.359375 221.964844 2.886719 223.097656 C 2.417969 224.226562 2 225.378906 1.640625 226.550781 C 1.285156 227.722656 0.984375 228.910156 0.742188 230.113281 C 0.5 231.3125 0.316406 232.523438 0.191406 233.742188 C 0.0664062 234.960938 0.00390625 236.183594 0 237.410156 L 0 324.945312 C 0 326.585938 0.0820312 328.21875 0.242188 329.851562 C 0.402344 331.480469 0.640625 333.101562 0.960938 334.707031 C 1.28125 336.316406 1.679688 337.902344 2.15625 339.472656 C 2.628906 341.039062 3.183594 342.582031 3.808594 344.09375 C 4.4375 345.609375 5.136719 347.085938 5.910156 348.53125 C 6.679688 349.976562 7.523438 351.382812 8.433594 352.746094 C 9.34375 354.109375 10.316406 355.421875 11.359375 356.6875 C 12.398438 357.957031 13.496094 359.167969 14.65625 360.328125 C 15.8125 361.484375 17.027344 362.585938 18.292969 363.625 C 19.558594 364.664062 20.875 365.640625 22.238281 366.550781 C 23.601562 367.460938 25.003906 368.300781 26.449219 369.074219 C 27.894531 369.847656 29.375 370.546875 30.886719 371.175781 C 32.402344 371.800781 33.945312 372.351562 35.511719 372.828125 C 37.078125 373.304688 38.667969 373.703125 40.273438 374.019531 C 41.882812 374.339844 43.5 374.582031 45.132812 374.742188 C 46.761719 374.902344 48.398438 374.984375 50.035156 374.984375 L 312.523438 374.984375 C 314.570312 374.980469 316.609375 374.875 318.644531 374.671875 C 320.675781 374.46875 322.695312 374.164062 324.703125 373.761719 C 326.707031 373.363281 328.6875 372.863281 330.640625 372.265625 C 332.597656 371.671875 334.519531 370.980469 336.40625 370.195312 C 338.296875 369.414062 340.140625 368.539062 341.945312 367.574219 C 343.746094 366.609375 345.496094 365.558594 347.195312 364.421875 C 348.894531 363.285156 350.535156 362.066406 352.117188 360.769531 C 353.695312 359.472656 355.210938 358.101562 356.65625 356.65625 C 358.101562 355.210938 359.472656 353.695312 360.769531 352.117188 C 362.066406 350.535156 363.285156 348.894531 364.421875 347.195312 C 365.558594 345.496094 366.609375 343.746094 367.574219 341.945312 C 368.539062 340.140625 369.414062 338.296875 370.195312 336.40625 C 370.980469 334.519531 371.671875 332.597656 372.265625 330.640625 C 372.863281 328.6875 373.363281 326.707031 373.761719 324.703125 C 374.164062 322.695312 374.46875 320.675781 374.671875 318.644531 C 374.875 316.609375 374.980469 314.570312 374.984375 312.523438 L 374.984375 37.5 C 374.984375 35.035156 374.746094 32.597656 374.265625 30.183594 C 373.785156 27.769531 373.070312 25.425781 372.125 23.15625 C 371.179688 20.882812 370.019531 18.722656 368.648438 16.679688 C 367.273438 14.636719 365.714844 12.75 363.96875 11.015625 Z M 24.960938 324.945312 L 24.960938 237.410156 C 24.960938 236.589844 25.039062 235.777344 25.203125 234.972656 C 25.363281 234.167969 25.601562 233.386719 25.917969 232.628906 C 26.230469 231.871094 26.621094 231.152344 27.078125 230.472656 C 27.535156 229.792969 28.054688 229.164062 28.640625 228.585938 C 29.222656 228.007812 29.855469 227.492188 30.542969 227.042969 C 31.226562 226.589844 31.949219 226.210938 32.707031 225.902344 C 33.46875 225.59375 34.253906 225.363281 35.058594 225.207031 C 35.863281 225.054688 36.679688 224.980469 37.5 224.988281 L 74.996094 224.988281 L 74.996094 324.945312 C 74.996094 325.765625 74.957031 326.582031 74.875 327.398438 C 74.796875 328.214844 74.675781 329.023438 74.515625 329.828125 C 74.355469 330.628906 74.15625 331.425781 73.917969 332.207031 C 73.679688 332.992188 73.40625 333.761719 73.09375 334.519531 C 72.777344 335.277344 72.429688 336.015625 72.042969 336.738281 C 71.65625 337.460938 71.234375 338.164062 70.78125 338.84375 C 70.324219 339.527344 69.835938 340.183594 69.316406 340.816406 C 68.796875 341.449219 68.25 342.058594 67.667969 342.636719 C 67.089844 343.214844 66.484375 343.765625 65.851562 344.285156 C 65.214844 344.804688 64.558594 345.292969 63.878906 345.746094 C 63.195312 346.203125 62.496094 346.625 61.773438 347.011719 C 61.050781 347.398438 60.308594 347.746094 59.550781 348.058594 C 58.796875 348.375 58.023438 348.648438 57.242188 348.886719 C 56.457031 349.125 55.664062 349.324219 54.859375 349.484375 C 54.054688 349.644531 53.246094 349.761719 52.429688 349.84375 C 51.613281 349.925781 50.796875 349.964844 49.976562 349.964844 C 49.160156 349.964844 48.339844 349.925781 47.527344 349.84375 C 46.710938 349.761719 45.902344 349.644531 45.097656 349.484375 C 44.292969 349.324219 43.5 349.125 42.714844 348.886719 C 41.929688 348.648438 41.160156 348.375 40.402344 348.058594 C 39.648438 347.746094 38.90625 347.398438 38.183594 347.011719 C 37.460938 346.625 36.761719 346.203125 36.078125 345.746094 C 35.398438 345.292969 34.738281 344.804688 34.105469 344.285156 C 33.472656 343.765625 32.867188 343.214844 32.289062 342.636719 C 31.707031 342.058594 31.160156 341.449219 30.640625 340.816406 C 30.117188 340.183594 29.632812 339.527344 29.175781 338.84375 C 28.722656 338.164062 28.300781 337.460938 27.914062 336.738281 C 27.527344 336.015625 27.179688 335.277344 26.863281 334.519531 C 26.550781 333.761719 26.273438 332.992188 26.035156 332.207031 C 25.800781 331.425781 25.601562 330.628906 25.441406 329.828125 C 25.28125 329.023438 25.160156 328.214844 25.082031 327.398438 C 25 326.582031 24.960938 325.765625 24.960938 324.945312 Z M 349.90625 312.40625 C 349.90625 313.636719 349.84375 314.859375 349.726562 316.082031 C 349.605469 317.304688 349.425781 318.519531 349.183594 319.722656 C 348.945312 320.925781 348.648438 322.117188 348.292969 323.292969 C 347.933594 324.46875 347.519531 325.621094 347.050781 326.757812 C 346.582031 327.890625 346.058594 329 345.476562 330.085938 C 344.898438 331.167969 344.269531 332.21875 343.585938 333.242188 C 342.902344 334.261719 342.171875 335.246094 341.394531 336.195312 C 340.613281 337.144531 339.792969 338.054688 338.921875 338.921875 C 338.054688 339.792969 337.144531 340.613281 336.195312 341.394531 C 335.246094 342.171875 334.261719 342.902344 333.242188 343.585938 C 332.21875 344.269531 331.167969 344.898438 330.085938 345.476562 C 329 346.058594 327.890625 346.582031 326.757812 347.050781 C 325.621094 347.519531 324.46875 347.933594 323.292969 348.292969 C 322.117188 348.648438 320.925781 348.945312 319.722656 349.183594 C 318.519531 349.425781 317.304688 349.605469 316.082031 349.726562 C 314.859375 349.84375 313.636719 349.90625 312.40625 349.90625 L 93.042969 349.90625 C 95.28125 346.125 96.988281 342.121094 98.164062 337.886719 C 99.335938 333.652344 99.933594 329.339844 99.957031 324.945312 L 99.957031 37.5 C 99.957031 36.675781 100.035156 35.859375 100.195312 35.050781 C 100.359375 34.246094 100.597656 33.460938 100.910156 32.699219 C 101.226562 31.9375 101.613281 31.21875 102.070312 30.53125 C 102.527344 29.847656 103.046875 29.214844 103.628906 28.632812 C 104.210938 28.050781 104.84375 27.53125 105.527344 27.074219 C 106.214844 26.617188 106.9375 26.230469 107.695312 25.914062 C 108.457031 25.597656 109.242188 25.363281 110.046875 25.199219 C 110.855469 25.039062 111.671875 24.960938 112.496094 24.960938 L 337.484375 24.960938 C 338.308594 24.960938 339.125 25.039062 339.929688 25.199219 C 340.738281 25.363281 341.523438 25.597656 342.28125 25.914062 C 343.042969 26.230469 343.765625 26.617188 344.449219 27.074219 C 345.136719 27.53125 345.769531 28.050781 346.351562 28.632812 C 346.933594 29.214844 347.453125 29.847656 347.910156 30.53125 C 348.367188 31.21875 348.753906 31.9375 349.070312 32.699219 C 349.382812 33.460938 349.621094 34.246094 349.78125 35.050781 C 349.941406 35.859375 350.023438 36.675781 350.023438 37.5 Z M 349.90625 312.40625 " fill-opacity="1" fill-rule="nonzero"/><path fill="#4258ff" d="M 287.449219 237.527344 L 162.53125 237.527344 C 162.097656 237.484375 161.664062 237.464844 161.226562 237.46875 C 160.789062 237.472656 160.355469 237.5 159.921875 237.546875 C 159.488281 237.597656 159.058594 237.667969 158.632812 237.761719 C 158.207031 237.855469 157.789062 237.96875 157.375 238.105469 C 156.960938 238.242188 156.554688 238.402344 156.15625 238.582031 C 155.761719 238.761719 155.375 238.960938 154.996094 239.179688 C 154.621094 239.402344 154.257812 239.640625 153.90625 239.898438 C 153.554688 240.15625 153.214844 240.429688 152.894531 240.722656 C 152.570312 241.015625 152.265625 241.324219 151.972656 241.652344 C 151.683594 241.976562 151.410156 242.316406 151.15625 242.667969 C 150.898438 243.023438 150.664062 243.386719 150.445312 243.765625 C 150.230469 244.144531 150.03125 244.53125 149.855469 244.929688 C 149.679688 245.328125 149.523438 245.738281 149.390625 246.152344 C 149.257812 246.566406 149.144531 246.988281 149.054688 247.414062 C 148.964844 247.839844 148.894531 248.269531 148.851562 248.703125 C 148.804688 249.136719 148.78125 249.570312 148.78125 250.007812 C 148.78125 250.445312 148.804688 250.878906 148.851562 251.3125 C 148.894531 251.746094 148.964844 252.175781 149.054688 252.601562 C 149.144531 253.027344 149.257812 253.449219 149.390625 253.863281 C 149.523438 254.28125 149.679688 254.6875 149.855469 255.085938 C 150.03125 255.484375 150.230469 255.871094 150.445312 256.25 C 150.664062 256.628906 150.898438 256.992188 151.15625 257.347656 C 151.410156 257.699219 151.683594 258.039062 151.972656 258.363281 C 152.265625 258.691406 152.570312 259 152.894531 259.292969 C 153.214844 259.585938 153.554688 259.859375 153.90625 260.117188 C 154.257812 260.375 154.621094 260.617188 154.996094 260.835938 C 155.375 261.054688 155.761719 261.253906 156.15625 261.433594 C 156.554688 261.613281 156.960938 261.773438 157.375 261.910156 C 157.789062 262.046875 158.207031 262.160156 158.632812 262.253906 C 159.058594 262.347656 159.488281 262.417969 159.921875 262.46875 C 160.355469 262.515625 160.789062 262.542969 161.226562 262.546875 C 161.664062 262.550781 162.097656 262.53125 162.53125 262.488281 L 287.449219 262.488281 C 287.882812 262.53125 288.316406 262.550781 288.753906 262.546875 C 289.1875 262.542969 289.625 262.515625 290.054688 262.46875 C 290.488281 262.417969 290.917969 262.347656 291.34375 262.253906 C 291.769531 262.160156 292.191406 262.046875 292.605469 261.910156 C 293.019531 261.773438 293.425781 261.613281 293.820312 261.433594 C 294.21875 261.253906 294.605469 261.054688 294.980469 260.835938 C 295.359375 260.617188 295.722656 260.375 296.074219 260.117188 C 296.425781 259.859375 296.761719 259.585938 297.085938 259.292969 C 297.410156 259 297.714844 258.691406 298.003906 258.363281 C 298.296875 258.039062 298.570312 257.699219 298.824219 257.347656 C 299.078125 256.992188 299.316406 256.628906 299.53125 256.25 C 299.75 255.871094 299.945312 255.484375 300.121094 255.085938 C 300.300781 254.6875 300.453125 254.28125 300.589844 253.863281 C 300.722656 253.449219 300.835938 253.027344 300.925781 252.601562 C 301.015625 252.175781 301.082031 251.746094 301.128906 251.3125 C 301.175781 250.878906 301.195312 250.445312 301.195312 250.007812 C 301.195312 249.570312 301.175781 249.136719 301.128906 248.703125 C 301.082031 248.269531 301.015625 247.839844 300.925781 247.414062 C 300.835938 246.988281 300.722656 246.566406 300.589844 246.152344 C 300.453125 245.738281 300.300781 245.328125 300.121094 244.929688 C 299.945312 244.53125 299.75 244.144531 299.53125 243.765625 C 299.316406 243.386719 299.078125 243.023438 298.824219 242.667969 C 298.570312 242.316406 298.296875 241.976562 298.003906 241.652344 C 297.714844 241.324219 297.410156 241.015625 297.085938 240.722656 C 296.761719 240.429688 296.425781 240.15625 296.074219 239.898438 C 295.722656 239.640625 295.359375 239.402344 294.980469 239.179688 C 294.605469 238.960938 294.21875 238.761719 293.820312 238.582031 C 293.425781 238.402344 293.019531 238.242188 292.605469 238.105469 C 292.191406 237.96875 291.769531 237.855469 291.34375 237.761719 C 290.917969 237.667969 290.488281 237.597656 290.054688 237.546875 C 289.625 237.5 289.1875 237.472656 288.753906 237.46875 C 288.316406 237.464844 287.882812 237.484375 287.449219 237.527344 Z M 287.449219 237.527344 " fill-opacity="1" fill-rule="nonzero"/><path fill="#4258ff" d="M 287.449219 299.984375 L 162.53125 299.984375 C 162.097656 299.945312 161.664062 299.925781 161.226562 299.929688 C 160.789062 299.929688 160.355469 299.957031 159.921875 300.003906 C 159.488281 300.054688 159.058594 300.125 158.632812 300.21875 C 158.207031 300.3125 157.789062 300.425781 157.375 300.566406 C 156.960938 300.703125 156.554688 300.859375 156.15625 301.039062 C 155.761719 301.21875 155.375 301.417969 154.996094 301.640625 C 154.621094 301.859375 154.257812 302.097656 153.90625 302.355469 C 153.554688 302.613281 153.214844 302.890625 152.894531 303.183594 C 152.570312 303.476562 152.265625 303.785156 151.972656 304.109375 C 151.683594 304.433594 151.410156 304.773438 151.15625 305.125 C 150.898438 305.480469 150.664062 305.847656 150.445312 306.222656 C 150.230469 306.601562 150.03125 306.992188 149.855469 307.390625 C 149.679688 307.789062 149.523438 308.195312 149.390625 308.609375 C 149.257812 309.023438 149.144531 309.445312 149.054688 309.871094 C 148.964844 310.296875 148.894531 310.726562 148.851562 311.160156 C 148.804688 311.59375 148.78125 312.03125 148.78125 312.464844 C 148.78125 312.902344 148.804688 313.335938 148.851562 313.769531 C 148.894531 314.203125 148.964844 314.632812 149.054688 315.0625 C 149.144531 315.488281 149.257812 315.90625 149.390625 316.324219 C 149.523438 316.738281 149.679688 317.144531 149.855469 317.542969 C 150.03125 317.941406 150.230469 318.328125 150.445312 318.707031 C 150.664062 319.085938 150.898438 319.453125 151.15625 319.804688 C 151.410156 320.160156 151.683594 320.5 151.972656 320.824219 C 152.265625 321.148438 152.570312 321.457031 152.894531 321.75 C 153.214844 322.042969 153.554688 322.320312 153.90625 322.578125 C 154.257812 322.835938 154.621094 323.074219 154.996094 323.292969 C 155.375 323.511719 155.761719 323.710938 156.15625 323.890625 C 156.554688 324.070312 156.960938 324.230469 157.375 324.367188 C 157.789062 324.503906 158.207031 324.621094 158.632812 324.714844 C 159.058594 324.808594 159.488281 324.878906 159.921875 324.925781 C 160.355469 324.976562 160.789062 325 161.226562 325.003906 C 161.664062 325.007812 162.097656 324.988281 162.53125 324.945312 L 287.449219 324.945312 C 287.882812 324.988281 288.316406 325.007812 288.753906 325.003906 C 289.1875 325 289.625 324.976562 290.054688 324.925781 C 290.488281 324.878906 290.917969 324.808594 291.34375 324.714844 C 291.769531 324.621094 292.191406 324.503906 292.605469 324.367188 C 293.019531 324.230469 293.425781 324.070312 293.820312 323.890625 C 294.21875 323.710938 294.605469 323.511719 294.980469 323.292969 C 295.359375 323.074219 295.722656 322.835938 296.074219 322.578125 C 296.425781 322.320312 296.761719 322.042969 297.085938 321.75 C 297.410156 321.457031 297.714844 321.148438 298.003906 320.824219 C 298.296875 320.5 298.570312 320.160156 298.824219 319.804688 C 299.078125 319.453125 299.316406 319.085938 299.53125 318.707031 C 299.75 318.328125 299.945312 317.941406 300.121094 317.542969 C 300.300781 317.144531 300.453125 316.738281 300.589844 316.324219 C 300.722656 315.90625 300.835938 315.488281 300.925781 315.0625 C 301.015625 314.632812 301.082031 314.203125 301.128906 313.769531 C 301.175781 313.335938 301.195312 312.902344 301.195312 312.464844 C 301.195312 312.03125 301.175781 311.59375 301.128906 311.160156 C 301.082031 310.726562 301.015625 310.296875 300.925781 309.871094 C 300.835938 309.445312 300.722656 309.023438 300.589844 308.609375 C 300.453125 308.195312 300.300781 307.789062 300.121094 307.390625 C 299.945312 306.992188 299.75 306.601562 299.53125 306.222656 C 299.316406 305.847656 299.078125 305.480469 298.824219 305.125 C 298.570312 304.773438 298.296875 304.433594 298.003906 304.109375 C 297.714844 303.785156 297.410156 303.476562 297.085938 303.183594 C 296.761719 302.890625 296.425781 302.613281 296.074219 302.355469 C 295.722656 302.097656 295.359375 301.859375 294.980469 301.640625 C 294.605469 301.417969 294.21875 301.21875 293.820312 301.039062 C 293.425781 300.859375 293.019531 300.703125 292.605469 300.566406 C 292.191406 300.425781 291.769531 300.3125 291.34375 300.21875 C 290.917969 300.125 290.488281 300.054688 290.054688 300.003906 C 289.625 299.957031 289.1875 299.929688 288.753906 299.929688 C 288.316406 299.925781 287.882812 299.945312 287.449219 299.984375 Z M 287.449219 299.984375 " fill-opacity="1" fill-rule="nonzero"/><path fill="#ffc433" d="M 207.433594 89.988281 L 211.574219 101.492188 C 216.175781 114.261719 226.230469 124.316406 239 128.917969 L 250.503906 133.0625 C 251.542969 133.4375 251.542969 134.90625 250.503906 135.277344 L 239 139.421875 C 226.230469 144.023438 216.175781 154.078125 211.574219 166.847656 L 207.433594 178.351562 C 207.054688 179.386719 205.585938 179.386719 205.214844 178.351562 L 201.070312 166.847656 C 196.46875 154.078125 186.414062 144.023438 173.648438 139.421875 L 162.144531 135.277344 C 161.105469 134.902344 161.105469 133.433594 162.144531 133.0625 L 173.648438 128.917969 C 186.414062 124.316406 196.46875 114.261719 201.070312 101.492188 L 205.214844 89.988281 C 205.585938 88.949219 207.054688 88.949219 207.433594 89.988281 Z M 207.433594 89.988281 " fill-opacity="1" fill-rule="nonzero"/><path fill="#ffc433" d="M 259.21875 62.34375 L 261.316406 68.167969 C 263.648438 74.632812 268.742188 79.722656 275.207031 82.054688 L 281.03125 84.15625 C 281.554688 84.34375 281.554688 85.089844 281.03125 85.28125 L 275.207031 87.378906 C 268.742188 89.710938 263.648438 94.800781 261.316406 101.265625 L 259.21875 107.089844 C 259.027344 107.617188 258.285156 107.617188 258.09375 107.089844 L 255.992188 101.265625 C 253.660156 94.800781 248.570312 89.710938 242.105469 87.378906 L 236.28125 85.28125 C 235.753906 85.089844 235.753906 84.34375 236.28125 84.15625 L 242.105469 82.054688 C 248.570312 79.722656 253.660156 74.632812 255.992188 68.167969 L 258.09375 62.34375 C 258.285156 61.8125 259.03125 61.8125 259.21875 62.34375 Z M 259.21875 62.34375 " fill-opacity="1" fill-rule="nonzero"/><path fill="#ffc433" d="M 259.21875 161.253906 L 261.316406 167.078125 C 263.648438 173.542969 268.742188 178.632812 275.207031 180.964844 L 281.03125 183.066406 C 281.554688 183.257812 281.554688 184 281.03125 184.191406 L 275.207031 186.289062 C 268.742188 188.621094 263.648438 193.714844 261.316406 200.175781 L 259.21875 206.003906 C 259.027344 206.527344 258.285156 206.527344 258.09375 206.003906 L 255.992188 200.175781 C 253.660156 193.714844 248.570312 188.621094 242.105469 186.289062 L 236.28125 184.191406 C 235.753906 184 235.753906 183.257812 236.28125 183.066406 L 242.105469 180.964844 C 248.570312 178.632812 253.660156 173.542969 255.992188 167.078125 L 258.09375 161.253906 C 258.285156 160.726562 259.03125 160.726562 259.21875 161.253906 Z M 259.21875 161.253906 " fill-opacity="1" fill-rule="nonzero"/></g></g></svg>