<svg xmlns="http://www.w3.org/2000/svg" xmlns:xlink="http://www.w3.org/1999/xlink" width="500" zoomAndPan="magnify" viewBox="0 0 375 374.999991" height="500" preserveAspectRatio="xMidYMid meet" version="1.0"><defs><clipPath id="466630cd40"><rect x="0" width="375" y="0" height="375"/></clipPath></defs><g transform="matrix(1, 0, 0, 1, 0, 0)"><g clip-path="url(#466630cd40)"><path fill="#ffffff" d="M 363.984375 11.015625 C 362.242188 9.277344 360.347656 7.726562 358.304688 6.359375 C 356.257812 4.992188 354.101562 3.835938 351.828125 2.894531 C 349.558594 1.949219 347.21875 1.234375 344.804688 0.746094 C 342.394531 0.257812 339.960938 0.0117188 337.5 0 L 112.5 0 C 110.039062 0.0117188 107.605469 0.257812 105.195312 0.746094 C 102.78125 1.234375 100.441406 1.949219 98.171875 2.894531 C 95.898438 3.835938 93.742188 4.992188 91.695312 6.359375 C 89.652344 7.726562 87.757812 9.277344 86.015625 11.015625 C 84.269531 12.75 82.707031 14.636719 81.335938 16.679688 C 79.960938 18.722656 78.804688 20.882812 77.859375 23.15625 C 76.914062 25.429688 76.199219 27.773438 75.71875 30.1875 C 75.238281 32.601562 74.996094 35.039062 75 37.5 L 75 200.039062 L 37.5 200.039062 C 36.273438 200.039062 35.050781 200.097656 33.832031 200.21875 C 32.613281 200.339844 31.402344 200.519531 30.199219 200.757812 C 28.996094 200.996094 27.808594 201.292969 26.636719 201.648438 C 25.460938 202.003906 24.308594 202.414062 23.175781 202.882812 C 22.042969 203.351562 20.9375 203.871094 19.855469 204.449219 C 18.773438 205.027344 17.722656 205.65625 16.703125 206.335938 C 15.683594 207.015625 14.699219 207.742188 13.75 208.519531 C 12.800781 209.292969 11.894531 210.117188 11.023438 210.980469 C 10.15625 211.847656 9.332031 212.753906 8.554688 213.699219 C 7.773438 214.644531 7.042969 215.625 6.359375 216.644531 C 5.675781 217.660156 5.046875 218.710938 4.464844 219.789062 C 3.886719 220.871094 3.359375 221.976562 2.886719 223.105469 C 2.417969 224.238281 2 225.390625 1.640625 226.5625 C 1.285156 227.734375 0.984375 228.921875 0.742188 230.121094 C 0.5 231.324219 0.316406 232.535156 0.191406 233.753906 C 0.0664062 234.972656 0.00390625 236.195312 0 237.421875 L 0 324.960938 C 0 326.601562 0.0820312 328.234375 0.242188 329.867188 C 0.402344 331.496094 0.640625 333.117188 0.960938 334.722656 C 1.28125 336.332031 1.679688 337.917969 2.15625 339.488281 C 2.628906 341.054688 3.183594 342.597656 3.808594 344.109375 C 4.4375 345.625 5.136719 347.105469 5.910156 348.550781 C 6.679688 349.996094 7.523438 351.398438 8.433594 352.761719 C 9.34375 354.125 10.320312 355.4375 11.359375 356.707031 C 12.398438 357.972656 13.496094 359.183594 14.65625 360.34375 C 15.816406 361.503906 17.027344 362.601562 18.292969 363.640625 C 19.5625 364.679688 20.875 365.65625 22.238281 366.566406 C 23.601562 367.476562 25.003906 368.320312 26.449219 369.089844 C 27.894531 369.863281 29.375 370.5625 30.890625 371.191406 C 32.402344 371.816406 33.945312 372.371094 35.511719 372.84375 C 37.082031 373.320312 38.667969 373.71875 40.277344 374.039062 C 41.882812 374.359375 43.503906 374.597656 45.132812 374.757812 C 46.765625 374.917969 48.398438 375 50.039062 375 L 312.539062 375 C 314.582031 374.996094 316.625 374.890625 318.65625 374.6875 C 320.691406 374.484375 322.710938 374.183594 324.714844 373.78125 C 326.722656 373.378906 328.703125 372.878906 330.65625 372.285156 C 332.613281 371.6875 334.535156 371 336.421875 370.214844 C 338.3125 369.429688 340.15625 368.554688 341.960938 367.589844 C 343.761719 366.625 345.511719 365.574219 347.210938 364.4375 C 348.914062 363.300781 350.550781 362.082031 352.132812 360.785156 C 353.710938 359.488281 355.226562 358.117188 356.671875 356.671875 C 358.117188 355.226562 359.488281 353.710938 360.785156 352.132812 C 362.082031 350.550781 363.300781 348.914062 364.4375 347.210938 C 365.574219 345.511719 366.625 343.761719 367.589844 341.960938 C 368.554688 340.15625 369.429688 338.3125 370.214844 336.421875 C 371 334.535156 371.6875 332.613281 372.285156 330.65625 C 372.878906 328.703125 373.378906 326.722656 373.78125 324.714844 C 374.183594 322.710938 374.484375 320.691406 374.6875 318.65625 C 374.890625 316.625 374.996094 314.582031 375 312.539062 L 375 37.5 C 375.003906 35.039062 374.761719 32.601562 374.28125 30.1875 C 373.800781 27.773438 373.085938 25.429688 372.140625 23.15625 C 371.195312 20.882812 370.039062 18.722656 368.664062 16.679688 C 367.292969 14.636719 365.730469 12.75 363.984375 11.015625 Z M 24.960938 324.960938 L 24.960938 237.421875 C 24.960938 236.601562 25.042969 235.789062 25.203125 234.984375 C 25.363281 234.179688 25.601562 233.398438 25.917969 232.640625 C 26.234375 231.882812 26.621094 231.164062 27.078125 230.484375 C 27.535156 229.804688 28.058594 229.175781 28.640625 228.597656 C 29.222656 228.019531 29.859375 227.503906 30.542969 227.050781 C 31.226562 226.601562 31.949219 226.21875 32.710938 225.910156 C 33.46875 225.601562 34.253906 225.371094 35.058594 225.21875 C 35.867188 225.066406 36.679688 224.992188 37.5 225 L 75 225 L 75 324.960938 C 75 325.78125 74.960938 326.597656 74.878906 327.414062 C 74.800781 328.230469 74.679688 329.039062 74.519531 329.84375 C 74.359375 330.644531 74.160156 331.441406 73.921875 332.222656 C 73.683594 333.007812 73.410156 333.777344 73.09375 334.535156 C 72.78125 335.292969 72.433594 336.03125 72.046875 336.753906 C 71.660156 337.476562 71.238281 338.179688 70.785156 338.859375 C 70.328125 339.542969 69.839844 340.199219 69.320312 340.832031 C 68.800781 341.464844 68.25 342.074219 67.671875 342.652344 C 67.09375 343.230469 66.484375 343.78125 65.851562 344.300781 C 65.21875 344.820312 64.5625 345.308594 63.878906 345.765625 C 63.199219 346.21875 62.496094 346.640625 61.773438 347.027344 C 61.050781 347.414062 60.3125 347.761719 59.554688 348.074219 C 58.796875 348.390625 58.027344 348.664062 57.242188 348.902344 C 56.460938 349.140625 55.664062 349.339844 54.863281 349.5 C 54.058594 349.660156 53.25 349.78125 52.433594 349.859375 C 51.617188 349.941406 50.800781 349.980469 49.980469 349.980469 C 49.160156 349.980469 48.34375 349.941406 47.527344 349.859375 C 46.710938 349.78125 45.902344 349.660156 45.097656 349.5 C 44.296875 349.339844 43.5 349.140625 42.71875 348.902344 C 41.933594 348.664062 41.164062 348.390625 40.40625 348.074219 C 39.648438 347.761719 38.910156 347.414062 38.1875 347.027344 C 37.464844 346.640625 36.761719 346.21875 36.082031 345.765625 C 35.398438 345.308594 34.742188 344.820312 34.109375 344.300781 C 33.476562 343.78125 32.867188 343.230469 32.289062 342.652344 C 31.710938 342.074219 31.160156 341.464844 30.640625 340.832031 C 30.121094 340.199219 29.632812 339.542969 29.175781 338.859375 C 28.722656 338.179688 28.300781 337.476562 27.914062 336.753906 C 27.527344 336.03125 27.179688 335.292969 26.867188 334.535156 C 26.550781 333.777344 26.277344 333.007812 26.039062 332.222656 C 25.800781 331.441406 25.601562 330.644531 25.441406 329.84375 C 25.28125 329.039062 25.160156 328.230469 25.082031 327.414062 C 25 326.597656 24.960938 325.78125 24.960938 324.960938 Z M 349.921875 312.421875 C 349.921875 313.648438 349.863281 314.875 349.742188 316.097656 C 349.621094 317.320312 349.441406 318.53125 349.203125 319.738281 C 348.960938 320.941406 348.664062 322.132812 348.308594 323.308594 C 347.949219 324.484375 347.539062 325.636719 347.066406 326.773438 C 346.597656 327.90625 346.074219 329.015625 345.492188 330.097656 C 344.914062 331.183594 344.285156 332.234375 343.601562 333.253906 C 342.917969 334.277344 342.1875 335.261719 341.410156 336.210938 C 340.628906 337.160156 339.808594 338.070312 338.9375 338.9375 C 338.070312 339.808594 337.160156 340.628906 336.210938 341.410156 C 335.261719 342.1875 334.277344 342.917969 333.253906 343.601562 C 332.234375 344.285156 331.183594 344.914062 330.097656 345.492188 C 329.015625 346.074219 327.90625 346.597656 326.773438 347.066406 C 325.636719 347.539062 324.484375 347.949219 323.308594 348.308594 C 322.132812 348.664062 320.941406 348.960938 319.738281 349.203125 C 318.53125 349.441406 317.320312 349.621094 316.097656 349.742188 C 314.875 349.863281 313.648438 349.921875 312.421875 349.921875 L 93.046875 349.921875 C 95.289062 346.144531 96.996094 342.136719 98.167969 337.902344 C 99.339844 333.667969 99.9375 329.355469 99.960938 324.960938 L 99.960938 37.5 C 99.960938 36.675781 100.042969 35.859375 100.203125 35.054688 C 100.363281 34.246094 100.601562 33.460938 100.914062 32.703125 C 101.230469 31.941406 101.617188 31.21875 102.074219 30.535156 C 102.53125 29.847656 103.050781 29.214844 103.632812 28.632812 C 104.214844 28.050781 104.847656 27.53125 105.535156 27.074219 C 106.21875 26.617188 106.941406 26.230469 107.703125 25.914062 C 108.460938 25.601562 109.246094 25.363281 110.054688 25.203125 C 110.859375 25.042969 111.675781 24.960938 112.5 24.960938 L 337.5 24.960938 C 338.324219 24.960938 339.140625 25.042969 339.945312 25.203125 C 340.753906 25.363281 341.539062 25.601562 342.296875 25.914062 C 343.058594 26.230469 343.78125 26.617188 344.464844 27.074219 C 345.152344 27.53125 345.785156 28.050781 346.367188 28.632812 C 346.949219 29.214844 347.46875 29.847656 347.925781 30.535156 C 348.382812 31.21875 348.769531 31.941406 349.085938 32.703125 C 349.398438 33.460938 349.636719 34.246094 349.796875 35.054688 C 349.957031 35.859375 350.039062 36.675781 350.039062 37.5 Z M 349.921875 312.421875 " fill-opacity="1" fill-rule="nonzero"/><path fill="#ffffff" d="M 287.460938 237.539062 L 162.539062 237.539062 C 162.105469 237.496094 161.671875 237.476562 161.234375 237.480469 C 160.796875 237.484375 160.363281 237.511719 159.929688 237.558594 C 159.496094 237.605469 159.066406 237.679688 158.640625 237.773438 C 158.214844 237.863281 157.796875 237.980469 157.382812 238.117188 C 156.96875 238.253906 156.5625 238.414062 156.164062 238.59375 C 155.769531 238.773438 155.382812 238.972656 155.003906 239.191406 C 154.628906 239.410156 154.265625 239.652344 153.914062 239.910156 C 153.5625 240.167969 153.222656 240.441406 152.902344 240.734375 C 152.578125 241.027344 152.269531 241.335938 151.980469 241.660156 C 151.691406 241.988281 151.417969 242.328125 151.160156 242.679688 C 150.90625 243.035156 150.671875 243.398438 150.453125 243.777344 C 150.238281 244.15625 150.039062 244.542969 149.863281 244.941406 C 149.6875 245.339844 149.53125 245.746094 149.398438 246.164062 C 149.261719 246.578125 149.152344 247 149.0625 247.425781 C 148.96875 247.851562 148.902344 248.28125 148.855469 248.714844 C 148.8125 249.148438 148.789062 249.582031 148.789062 250.019531 C 148.789062 250.457031 148.8125 250.890625 148.855469 251.324219 C 148.902344 251.757812 148.96875 252.1875 149.0625 252.613281 C 149.152344 253.039062 149.261719 253.460938 149.398438 253.875 C 149.53125 254.292969 149.6875 254.699219 149.863281 255.097656 C 150.039062 255.496094 150.238281 255.882812 150.453125 256.261719 C 150.671875 256.640625 150.90625 257.003906 151.160156 257.359375 C 151.417969 257.710938 151.691406 258.050781 151.980469 258.378906 C 152.269531 258.703125 152.578125 259.011719 152.902344 259.304688 C 153.222656 259.597656 153.5625 259.871094 153.914062 260.128906 C 154.265625 260.386719 154.628906 260.628906 155.003906 260.847656 C 155.382812 261.066406 155.769531 261.265625 156.164062 261.445312 C 156.5625 261.625 156.96875 261.785156 157.382812 261.921875 C 157.796875 262.058594 158.214844 262.175781 158.640625 262.265625 C 159.066406 262.359375 159.496094 262.433594 159.929688 262.480469 C 160.363281 262.527344 160.796875 262.554688 161.234375 262.558594 C 161.671875 262.5625 162.105469 262.542969 162.539062 262.5 L 287.460938 262.5 C 287.894531 262.542969 288.328125 262.5625 288.765625 262.558594 C 289.203125 262.554688 289.636719 262.527344 290.070312 262.480469 C 290.503906 262.433594 290.933594 262.359375 291.359375 262.265625 C 291.785156 262.175781 292.203125 262.058594 292.617188 261.921875 C 293.03125 261.785156 293.4375 261.625 293.835938 261.445312 C 294.230469 261.265625 294.617188 261.066406 294.996094 260.847656 C 295.371094 260.628906 295.734375 260.386719 296.085938 260.128906 C 296.4375 259.871094 296.777344 259.597656 297.097656 259.304688 C 297.421875 259.011719 297.730469 258.703125 298.019531 258.378906 C 298.308594 258.050781 298.582031 257.710938 298.839844 257.359375 C 299.09375 257.003906 299.328125 256.640625 299.546875 256.261719 C 299.761719 255.882812 299.960938 255.496094 300.136719 255.097656 C 300.3125 254.699219 300.46875 254.292969 300.601562 253.875 C 300.738281 253.460938 300.847656 253.039062 300.9375 252.613281 C 301.03125 252.1875 301.097656 251.757812 301.144531 251.324219 C 301.1875 250.890625 301.210938 250.457031 301.210938 250.019531 C 301.210938 249.582031 301.1875 249.148438 301.144531 248.714844 C 301.097656 248.28125 301.03125 247.851562 300.9375 247.425781 C 300.847656 247 300.738281 246.578125 300.601562 246.164062 C 300.46875 245.746094 300.3125 245.339844 300.136719 244.941406 C 299.960938 244.542969 299.761719 244.15625 299.546875 243.777344 C 299.328125 243.398438 299.09375 243.035156 298.839844 242.679688 C 298.582031 242.328125 298.308594 241.988281 298.019531 241.660156 C 297.730469 241.335938 297.421875 241.027344 297.097656 240.734375 C 296.777344 240.441406 296.4375 240.167969 296.085938 239.910156 C 295.734375 239.652344 295.371094 239.410156 294.996094 239.191406 C 294.617188 238.972656 294.230469 238.773438 293.835938 238.59375 C 293.4375 238.414062 293.03125 238.253906 292.617188 238.117188 C 292.203125 237.980469 291.785156 237.863281 291.359375 237.773438 C 290.933594 237.679688 290.503906 237.605469 290.070312 237.558594 C 289.636719 237.511719 289.203125 237.484375 288.765625 237.480469 C 288.328125 237.476562 287.894531 237.496094 287.460938 237.539062 Z M 287.460938 237.539062 " fill-opacity="1" fill-rule="nonzero"/><path fill="#ffffff" d="M 287.460938 300 L 162.539062 300 C 162.105469 299.957031 161.671875 299.9375 161.234375 299.941406 C 160.796875 299.945312 160.363281 299.972656 159.929688 300.019531 C 159.496094 300.066406 159.066406 300.140625 158.640625 300.234375 C 158.214844 300.324219 157.796875 300.441406 157.382812 300.578125 C 156.96875 300.714844 156.5625 300.875 156.164062 301.054688 C 155.769531 301.234375 155.382812 301.433594 155.003906 301.652344 C 154.628906 301.871094 154.265625 302.113281 153.914062 302.371094 C 153.5625 302.628906 153.222656 302.902344 152.902344 303.195312 C 152.578125 303.488281 152.269531 303.796875 151.980469 304.121094 C 151.691406 304.449219 151.417969 304.789062 151.160156 305.140625 C 150.90625 305.496094 150.671875 305.859375 150.453125 306.238281 C 150.238281 306.617188 150.039062 307.003906 149.863281 307.402344 C 149.6875 307.800781 149.53125 308.207031 149.398438 308.625 C 149.261719 309.039062 149.152344 309.460938 149.0625 309.886719 C 148.96875 310.3125 148.902344 310.742188 148.855469 311.175781 C 148.8125 311.609375 148.789062 312.042969 148.789062 312.480469 C 148.789062 312.917969 148.8125 313.351562 148.855469 313.785156 C 148.902344 314.21875 148.96875 314.648438 149.0625 315.074219 C 149.152344 315.5 149.261719 315.921875 149.398438 316.335938 C 149.53125 316.753906 149.6875 317.160156 149.863281 317.558594 C 150.039062 317.957031 150.238281 318.34375 150.453125 318.722656 C 150.671875 319.101562 150.90625 319.464844 151.160156 319.820312 C 151.417969 320.171875 151.691406 320.511719 151.980469 320.839844 C 152.269531 321.164062 152.578125 321.472656 152.902344 321.765625 C 153.222656 322.058594 153.5625 322.332031 153.914062 322.589844 C 154.265625 322.847656 154.628906 323.089844 155.003906 323.308594 C 155.382812 323.527344 155.769531 323.726562 156.164062 323.90625 C 156.5625 324.085938 156.96875 324.246094 157.382812 324.382812 C 157.796875 324.519531 158.214844 324.636719 158.640625 324.726562 C 159.066406 324.820312 159.496094 324.894531 159.929688 324.941406 C 160.363281 324.988281 160.796875 325.015625 161.234375 325.019531 C 161.671875 325.023438 162.105469 325.003906 162.539062 324.960938 L 287.460938 324.960938 C 287.894531 325.003906 288.328125 325.023438 288.765625 325.019531 C 289.203125 325.015625 289.636719 324.988281 290.070312 324.941406 C 290.503906 324.894531 290.933594 324.820312 291.359375 324.726562 C 291.785156 324.636719 292.203125 324.519531 292.617188 324.382812 C 293.03125 324.246094 293.4375 324.085938 293.835938 323.90625 C 294.230469 323.726562 294.617188 323.527344 294.996094 323.308594 C 295.371094 323.089844 295.734375 322.847656 296.085938 322.589844 C 296.4375 322.332031 296.777344 322.058594 297.097656 321.765625 C 297.421875 321.472656 297.730469 321.164062 298.019531 320.839844 C 298.308594 320.511719 298.582031 320.171875 298.839844 319.820312 C 299.09375 319.464844 299.328125 319.101562 299.546875 318.722656 C 299.761719 318.34375 299.960938 317.957031 300.136719 317.558594 C 300.3125 317.160156 300.46875 316.753906 300.601562 316.335938 C 300.738281 315.921875 300.847656 315.5 300.9375 315.074219 C 301.03125 314.648438 301.097656 314.21875 301.144531 313.785156 C 301.1875 313.351562 301.210938 312.917969 301.210938 312.480469 C 301.210938 312.042969 301.1875 311.609375 301.144531 311.175781 C 301.097656 310.742188 301.03125 310.3125 300.9375 309.886719 C 300.847656 309.460938 300.738281 309.039062 300.601562 308.625 C 300.46875 308.207031 300.3125 307.800781 300.136719 307.402344 C 299.960938 307.003906 299.761719 306.617188 299.546875 306.238281 C 299.328125 305.859375 299.09375 305.496094 298.839844 305.140625 C 298.582031 304.789062 298.308594 304.449219 298.019531 304.121094 C 297.730469 303.796875 297.421875 303.488281 297.097656 303.195312 C 296.777344 302.902344 296.4375 302.628906 296.085938 302.371094 C 295.734375 302.113281 295.371094 301.871094 294.996094 301.652344 C 294.617188 301.433594 294.230469 301.234375 293.835938 301.054688 C 293.4375 300.875 293.03125 300.714844 292.617188 300.578125 C 292.203125 300.441406 291.785156 300.324219 291.359375 300.234375 C 290.933594 300.140625 290.503906 300.066406 290.070312 300.019531 C 289.636719 299.972656 289.203125 299.945312 288.765625 299.941406 C 288.328125 299.9375 287.894531 299.957031 287.460938 300 Z M 287.460938 300 " fill-opacity="1" fill-rule="nonzero"/><path fill="#ffc433" d="M 207.433594 89.992188 L 211.578125 101.496094 C 216.179688 114.261719 226.234375 124.316406 239.003906 128.921875 L 250.507812 133.0625 C 251.542969 133.4375 251.542969 134.910156 250.507812 135.28125 L 239.003906 139.425781 C 226.234375 144.027344 216.179688 154.082031 211.578125 166.847656 L 207.433594 178.355469 C 207.058594 179.390625 205.585938 179.390625 205.214844 178.355469 L 201.074219 166.847656 C 196.472656 154.082031 186.417969 144.027344 173.648438 139.425781 L 162.144531 135.28125 C 161.105469 134.90625 161.105469 133.433594 162.144531 133.0625 L 173.648438 128.921875 C 186.417969 124.316406 196.472656 114.261719 201.074219 101.496094 L 205.214844 89.992188 C 205.585938 88.949219 207.058594 88.949219 207.433594 89.992188 Z M 207.433594 89.992188 " fill-opacity="1" fill-rule="nonzero"/><path fill="#ffc433" d="M 259.222656 62.34375 L 261.320312 68.167969 C 263.652344 74.632812 268.746094 79.722656 275.207031 82.054688 L 281.03125 84.15625 C 281.558594 84.347656 281.558594 85.089844 281.03125 85.28125 L 275.207031 87.378906 C 268.746094 89.710938 263.652344 94.804688 261.320312 101.269531 L 259.222656 107.09375 C 259.03125 107.617188 258.285156 107.617188 258.097656 107.09375 L 255.996094 101.269531 C 253.664062 94.804688 248.574219 89.710938 242.109375 87.378906 L 236.285156 85.28125 C 235.757812 85.089844 235.757812 84.347656 236.285156 84.15625 L 242.109375 82.054688 C 248.574219 79.722656 253.664062 74.632812 255.996094 68.167969 L 258.097656 62.34375 C 258.285156 61.8125 259.035156 61.8125 259.222656 62.34375 Z M 259.222656 62.34375 " fill-opacity="1" fill-rule="nonzero"/><path fill="#ffc433" d="M 259.222656 161.257812 L 261.320312 167.082031 C 263.652344 173.546875 268.746094 178.636719 275.207031 180.96875 L 281.03125 183.070312 C 281.558594 183.261719 281.558594 184.003906 281.03125 184.195312 L 275.207031 186.292969 C 268.746094 188.625 263.652344 193.71875 261.320312 200.179688 L 259.222656 206.003906 C 259.03125 206.53125 258.285156 206.53125 258.097656 206.003906 L 255.996094 200.179688 C 253.664062 193.71875 248.574219 188.625 242.109375 186.292969 L 236.285156 184.195312 C 235.757812 184.003906 235.757812 183.261719 236.285156 183.070312 L 242.109375 180.96875 C 248.574219 178.636719 253.664062 173.546875 255.996094 167.082031 L 258.097656 161.257812 C 258.285156 160.730469 259.035156 160.730469 259.222656 161.257812 Z M 259.222656 161.257812 " fill-opacity="1" fill-rule="nonzero"/></g></g></svg>